<?xml version="1.0" encoding="UTF-8"?>
<!-- Generated by Pixelmator Pro 3.8 -->
<svg width="135" height="135" viewBox="0 0 135 135" xmlns="http://www.w3.org/2000/svg">
    <g id="Group">
        <g id="g1">
            <path id="Path" fill="#000000" stroke="none" d="M 86.800003 20.300003 C 86.800003 20.300003 85.400002 20.699997 83.099998 21.400002 C 82.699997 20.099998 82.099998 18.599998 81.300003 17 C 78.699997 12 74.799995 9.300003 70.199997 9.300003 C 70.199997 9.300003 70.199997 9.300003 70.199997 9.300003 C 69.900002 9.300003 69.599998 9.300003 69.199997 9.400002 C 69.099998 9.199997 68.900002 9.099998 68.799995 8.900002 C 66.799995 6.699997 64.199997 5.699997 61.099998 5.800003 C 55.099998 6 49.099998 10.300003 44.299999 18 C 40.899998 23.400002 38.299999 30.199997 37.599998 35.5 C 30.700001 37.599998 25.9 39.099998 25.799999 39.199997 C 22.299999 40.300003 22.199999 40.400002 21.799999 43.699997 C 21.5 46.199997 12.3 116.599998 12.3 116.599998 L 87.900002 129.699997 L 87.900002 20.199997 C 87.300003 20.199997 87 20.300003 86.800003 20.300003 Z M 69.299995 25.699997 C 65.299995 26.900002 60.900002 28.300003 56.599998 29.599998 C 57.799999 24.900002 60.200001 20.199997 63 17.099998 C 64.099998 16 65.599998 14.699997 67.299995 13.900002 C 69 17.5 69.400002 22.400002 69.299995 25.699997 Z M 61.099998 9.900002 C 62.5 9.900002 63.700001 10.199997 64.699997 10.800003 C 63.099998 11.599998 61.5 12.900002 60 14.400002 C 56.200001 18.5 53.299999 24.900002 52.099998 31 C 48.5 32.099998 44.900002 33.199997 41.599998 34.199997 C 43.799999 24.599998 51.900002 10.099998 61.099998 9.900002 Z M 49.5 64.900002 C 49.900002 71.300003 66.799995 72.699997 67.799995 87.800003 C 68.5 99.699997 61.5 107.800003 51.400002 108.400002 C 39.200001 109.199997 32.5 102 32.5 102 L 35.099998 91 C 35.099998 91 41.799999 96.099998 47.200001 95.699997 C 50.700001 95.5 52 92.599998 51.900002 90.599998 C 51.400002 82.199997 37.599998 82.699997 36.700001 68.900002 C 35.899998 57.300003 43.5 45.599998 60.299999 44.5 C 66.799995 44.099998 70.099998 45.699997 70.099998 45.699997 L 66.299995 60.099998 C 66.299995 60.099998 62 58.099998 56.900002 58.5 C 49.5 59 49.400002 63.699997 49.5 64.900002 Z M 73.299995 24.5 C 73.299995 21.5 72.900002 17.199997 71.5 13.599998 C 76.099998 14.5 78.300003 19.599998 79.300003 22.699997 C 77.5 23.199997 75.5 23.800003 73.299995 24.5 Z"/>
            <path id="path1" fill="#000000" stroke="none" d="M 90.199997 129.5 L 121.599998 121.699997 C 121.599998 121.699997 108.099998 30.400002 108 29.800003 C 107.900002 29.199997 107.400002 28.800003 106.900002 28.800003 C 106.400002 28.800003 97.599998 28.599998 97.599998 28.599998 C 97.599998 28.599998 92.199997 23.400002 90.199997 21.400002 L 90.199997 129.5 Z"/>
        </g>
    </g>
</svg>
