<?xml version="1.0" encoding="UTF-8"?>
<!-- Generated by Pixelmator Pro 3.8 -->
<svg width="135" height="135" viewBox="0 0 135 135" xmlns="http://www.w3.org/2000/svg">
    <path id="SquareLogo2025Black" fill="#000000" stroke="none" d="M 125.440208 29.551331 L 125.440208 107.448662 C 125.440208 118.245178 116.690063 127 105.888885 127 L 27.98921 127 C 17.190367 127 8.437882 118.249847 8.437882 107.448662 L 8.437882 29.551331 C 8.437882 18.754814 17.192703 10 27.98921 10 L 105.886543 10 C 116.687737 10 125.437881 18.750145 125.437881 29.551331 Z M 104.159859 37.452133 C 104.159859 34.043076 101.394806 31.280357 97.988083 31.280357 L 35.885353 31.280357 C 32.476295 31.280357 29.713577 34.043076 29.713577 37.452133 L 29.713577 99.564194 C 29.713577 102.973251 32.476295 105.73597 35.885353 105.73597 L 97.992744 105.73597 C 101.40181 105.73597 104.164513 102.970917 104.164513 99.564194 L 104.164513 37.452133 Z M 50.979942 56.107452 C 50.979942 54.140411 52.564301 52.546722 54.519665 52.546722 L 79.346764 52.546722 C 81.304466 52.546722 82.886482 54.142754 82.886482 56.107452 L 82.886482 80.897209 C 82.886482 82.864243 81.311462 84.457932 79.346764 84.457932 L 54.519665 84.457932 C 52.561977 84.457932 50.979942 82.861908 50.979942 80.897209 Z"/>
</svg>
